<svg width="300" height="300" viewBox="0 0 300 300" fill="none" xmlns="https://www.w3.org/2000/svg">
<path d="M84.8807 242.005C197 190.005 198 186 252.5 121.5C262.77 223.899 162.074 250.687 84.8807 242.005Z" fill="#2FE8EF"/>
<path d="M123.88 87.5049C39.3798 96.5049 9.38023 187.005 136.38 208.005L71.3799 239.505C-32.1188 215.505 1.88134 87.5049 123.88 87.5049Z" fill="#2FE8EF"/>
<path d="M145.519 162.5C141.184 170.129 131.019 193 131.019 193C113.1 162.286 62.0183 137 62.0183 137C62.0183 137 133.519 143.5 145.519 162.5Z" fill="#76F328"/>
<path d="M289.14 56C178.64 84.6587 134.138 183.841 139.138 198C180.638 195 178.14 139.659 289.14 56Z" fill="#76F328"/>
<path d="M164.519 121.5C164.519 131.993 156.012 140.5 145.519 140.5C135.025 140.5 126.519 131.993 126.519 121.5C126.519 111.007 135.025 102.5 145.519 102.5C156.012 102.5 164.519 111.007 164.519 121.5Z" fill="#76F328"/>
</svg>
